<svg xmlns="http://www.w3.org/2000/svg" xmlns:xlink="http://www.w3.org/1999/xlink" viewBox="0 0 49.76 17.64"><defs><style>.cls-1{fill:none;}.cls-2{fill:#fff;stroke:#b4b4b5;stroke-miterlimit:10;stroke-width:0.5px;}.cls-3{clip-path:url(#clip-path);}.cls-4{fill:#f4c16f;}.cls-5{fill:#e77e24;}.cls-6{fill:#e89c5f;}.cls-7{fill:#c38f69;}</style><clipPath id="clip-path" transform="translate(-6.47 -1.99)"><rect class="cls-1" width="31.54" height="21.61"/></clipPath></defs><g id="レイヤー_2" data-name="レイヤー 2"><g id="レイヤー_1-2" data-name="レイヤー 1"><ellipse class="cls-2" cx="24.6" cy="8.82" rx="24.35" ry="8.57"/><g class="cls-3"><ellipse class="cls-4" cx="25.07" cy="8.82" rx="24.68" ry="8.62"/></g><polygon class="cls-5" points="16.2 1.83 19.67 2.44 17.7 3.66 14.96 3.54 16.2 1.83"/><polygon class="cls-5" points="20.91 5.03 17.5 5.49 19.2 6.78 21.84 6.78 20.91 5.03"/><polygon class="cls-5" points="9.51 7.62 12.58 8.08 11.04 9.38 8.68 9.38 9.51 7.62"/><path class="cls-6" d="M22.65,8.67l1.26.23.68.32-.17,1L23.26,11,22,11.15l-.88-1s-.08-.45,0-.57S22.65,8.67,22.65,8.67Z" transform="translate(-6.47 -1.99)"/><path class="cls-7" d="M13.52,7.13l1.26.23.69.32-.18,1-1.16.73-1.22.19-.88-1A1.53,1.53,0,0,1,12,8,15.9,15.9,0,0,1,13.52,7.13Z" transform="translate(-6.47 -1.99)"/><path class="cls-7" d="M16.88,4.4l1.26.23.69.32-.18,1-1.16.72-1.22.19-.87-1s-.08-.46,0-.57A16.78,16.78,0,0,1,16.88,4.4Z" transform="translate(-6.47 -1.99)"/><path class="cls-6" d="M25.3,13l1.26.23.69.32-.17,1-1.17.72-1.22.19-.87-1s-.08-.45,0-.57A16.78,16.78,0,0,1,25.3,13Z" transform="translate(-6.47 -1.99)"/><path class="cls-6" d="M18.62,12.68l1.25.23.69.32-.17,1L19.23,15,18,15.16l-.88-1s-.08-.46,0-.57A14.71,14.71,0,0,1,18.62,12.68Z" transform="translate(-6.47 -1.99)"/></g></g></svg>